<svg width="1200" height="700" viewBox="0 0 1200 700" fill="none" xmlns="http://www.w3.org/2000/svg">
  <defs>
    <linearGradient id="bg" x1="0" y1="0" x2="1200" y2="700" gradientUnits="userSpaceOnUse">
      <stop stop-color="#070A10"/>
      <stop offset="1" stop-color="#111B2B"/>
    </linearGradient>
  </defs>
  <rect width="1200" height="700" fill="url(#bg)"/>

  <rect x="72" y="76" width="1056" height="548" rx="26" fill="#FFFFFF0E" stroke="#FFFFFF2A"/>
  <text x="110" y="130" fill="#D9E9FF" font-size="34" font-family="Arial, sans-serif" font-weight="700">Memo Builder</text>

  <rect x="108" y="165" width="492" height="420" rx="18" fill="#0E1520" stroke="#2A5B8E"/>
  <text x="136" y="208" fill="#9CC9FF" font-size="22" font-family="Arial, sans-serif" font-weight="700">Table Input</text>

  <rect x="136" y="236" width="436" height="54" rx="10" fill="#1A2533"/>
  <rect x="136" y="304" width="436" height="54" rx="10" fill="#1A2533"/>
  <rect x="136" y="372" width="436" height="54" rx="10" fill="#1A2533"/>
  <rect x="136" y="440" width="436" height="54" rx="10" fill="#1A2533"/>

  <line x1="282" y1="236" x2="282" y2="494" stroke="#385A7C"/>
  <line x1="410" y1="236" x2="410" y2="494" stroke="#385A7C"/>

  <rect x="630" y="165" width="462" height="420" rx="18" fill="#0E1520" stroke="#4AC3B5"/>
  <text x="658" y="208" fill="#8CF0E4" font-size="22" font-family="Arial, sans-serif" font-weight="700">Summary Output</text>

  <rect x="658" y="236" width="406" height="72" rx="12" fill="#152435"/>
  <text x="682" y="282" fill="#D3E6FF" font-size="26" font-family="Arial, sans-serif" font-weight="700">Count: 12</text>

  <text x="658" y="350" fill="#AFC9E4" font-size="24" font-family="Arial, sans-serif">1. Problem Statement</text>
  <text x="658" y="392" fill="#AFC9E4" font-size="24" font-family="Arial, sans-serif">2. Key Observations</text>
  <text x="658" y="434" fill="#AFC9E4" font-size="24" font-family="Arial, sans-serif">3. Action Items</text>
  <text x="658" y="476" fill="#AFC9E4" font-size="24" font-family="Arial, sans-serif">4. Next Steps</text>

  <rect x="658" y="514" width="220" height="44" rx="10" fill="#1B7CD6"/>
  <text x="703" y="543" fill="#EAF5FF" font-size="20" font-family="Arial, sans-serif" font-weight="700">Generate Memo</text>
</svg>
