<svg width="1200" height="700" viewBox="0 0 1200 700" fill="none" xmlns="http://www.w3.org/2000/svg">
  <defs>
    <linearGradient id="bg" x1="0" y1="0" x2="1200" y2="700" gradientUnits="userSpaceOnUse">
      <stop stop-color="#06080C"/>
      <stop offset="1" stop-color="#101722"/>
    </linearGradient>
  </defs>
  <rect width="1200" height="700" fill="url(#bg)"/>

  <rect x="90" y="72" width="1020" height="556" rx="30" fill="#FFFFFF0D" stroke="#FFFFFF2A"/>
  <text x="132" y="132" fill="#D6E8FF" font-size="36" font-family="Arial, sans-serif" font-weight="700">Stratplan</text>
  <text x="132" y="168" fill="#8DA2B8" font-size="22" font-family="Arial, sans-serif">Tree hierarchy planning view</text>

  <line x1="600" y1="240" x2="600" y2="300" stroke="#7FA9D8" stroke-width="4"/>
  <line x1="320" y1="360" x2="880" y2="360" stroke="#7FA9D8" stroke-width="4"/>
  <line x1="320" y1="360" x2="320" y2="430" stroke="#7FA9D8" stroke-width="4"/>
  <line x1="600" y1="360" x2="600" y2="430" stroke="#7FA9D8" stroke-width="4"/>
  <line x1="880" y1="360" x2="880" y2="430" stroke="#7FA9D8" stroke-width="4"/>

  <rect x="470" y="180" width="260" height="72" rx="14" fill="#1A3656" stroke="#4A86C5"/>
  <text x="520" y="225" fill="#E4F2FF" font-size="26" font-family="Arial, sans-serif" font-weight="700">Vision</text>

  <rect x="230" y="300" width="180" height="70" rx="14" fill="#18384E" stroke="#4EB5D8"/>
  <text x="274" y="344" fill="#DDF5FF" font-size="24" font-family="Arial, sans-serif" font-weight="700">Goal A</text>

  <rect x="510" y="300" width="180" height="70" rx="14" fill="#27422F" stroke="#6DD28A"/>
  <text x="554" y="344" fill="#E6FFE8" font-size="24" font-family="Arial, sans-serif" font-weight="700">Goal B</text>

  <rect x="790" y="300" width="180" height="70" rx="14" fill="#4A2E1A" stroke="#E09B5E"/>
  <text x="834" y="344" fill="#FFF3E5" font-size="24" font-family="Arial, sans-serif" font-weight="700">Goal C</text>

  <rect x="190" y="430" width="260" height="130" rx="16" fill="#101B2A" stroke="#4EB5D8"/>
  <text x="218" y="474" fill="#A8DFF4" font-size="22" font-family="Arial, sans-serif" font-weight="700">Initiatives A1, A2</text>
  <text x="218" y="511" fill="#8FA7BF" font-size="20" font-family="Arial, sans-serif">Owners + timeline</text>

  <rect x="470" y="430" width="260" height="130" rx="16" fill="#121F16" stroke="#6DD28A"/>
  <text x="498" y="474" fill="#B8F4C4" font-size="22" font-family="Arial, sans-serif" font-weight="700">Initiatives B1, B2</text>
  <text x="498" y="511" fill="#97B6A2" font-size="20" font-family="Arial, sans-serif">Milestones + risks</text>

  <rect x="750" y="430" width="260" height="130" rx="16" fill="#24180F" stroke="#E09B5E"/>
  <text x="778" y="474" fill="#FFD6B2" font-size="22" font-family="Arial, sans-serif" font-weight="700">Initiatives C1, C2</text>
  <text x="778" y="511" fill="#C6A78F" font-size="20" font-family="Arial, sans-serif">Dependencies</text>
</svg>
